HIERARCHY
ROOT Hips
{
	OFFSET 0.000000 0.000000 0.000000
	CHANNELS 6 Xposition Yposition Zposition Xrotation Yrotation Zrotation
	JOINT LeftUpLeg_virtual
	{
		OFFSET 0.000000 0.000000 0.000000
		CHANNELS 3 Xrotation Yrotation Zrotation
		JOINT LeftUpLeg
		{
			OFFSET 11.394100 -6.187798 -0.413800
			CHANNELS 3 Xrotation Yrotation Zrotation
			JOINT LeftLeg
			{
				OFFSET 0.430247 -32.302673 3.732800
				CHANNELS 3 Xrotation Yrotation Zrotation
				JOINT LeftFoot
				{
					OFFSET -0.430247 -48.264931 -6.423300
					CHANNELS 3 Xrotation Yrotation Zrotation
					JOINT LeftToeBase
					{
						OFFSET 4.230900 -16.068199 23.438400
						CHANNELS 3 Xrotation Yrotation Zrotation
						JOINT LeftToe_End
						{
							OFFSET 4.510700 0.695400 19.974600
							CHANNELS 3 Xrotation Yrotation Zrotation
							End Site
							{
								OFFSET 0 0 0
							}
						}
					}
				}
			}
		}
	}
	JOINT RightUpLeg_virtual
	{
		OFFSET 0.000000 0.000000 0.000000
		CHANNELS 3 Xrotation Yrotation Zrotation
		JOINT RightUpLeg
		{
			OFFSET -11.333700 -6.187798 -0.413800
			CHANNELS 3 Xrotation Yrotation Zrotation
			JOINT RightLeg
			{
				OFFSET -0.430392 -32.302628 3.733000
				CHANNELS 3 Xrotation Yrotation Zrotation
				JOINT RightFoot
				{
					OFFSET 0.430392 -48.264973 -6.423500
					CHANNELS 3 Xrotation Yrotation Zrotation
					JOINT RightToeBase
					{
						OFFSET -4.230900 -16.068199 23.438400
						CHANNELS 3 Xrotation Yrotation Zrotation
						JOINT RightToe_End
						{
							OFFSET -4.510700 0.695400 19.974600
							CHANNELS 3 Xrotation Yrotation Zrotation
							End Site
							{
								OFFSET 0 0 0
							}
						}
					}
				}
			}
		}
	}
	JOINT Spine_virtual
	{
		OFFSET 0.000000 0.000000 0.000000
		CHANNELS 3 Xrotation Yrotation Zrotation
		JOINT Spine
		{
			OFFSET -0.002400 12.777504 0.315300
			CHANNELS 3 Xrotation Yrotation Zrotation
			JOINT Spine1
			{
				OFFSET -0.002067 5.816869 0.032633
				CHANNELS 3 Xrotation Yrotation Zrotation
				JOINT Spine1_split
				{
					OFFSET -0.002067 5.816869 0.032633
					CHANNELS 3 Xrotation Yrotation Zrotation
					JOINT Spine2
					{
						OFFSET -0.002067 5.816869 0.032633
						CHANNELS 3 Xrotation Yrotation Zrotation
						JOINT Neck_virtual
						{
							OFFSET 0.000000 0.000000 0.000000
							CHANNELS 3 Xrotation Yrotation Zrotation
							JOINT Neck
							{
								OFFSET -0.003700 21.199493 -0.826900
								CHANNELS 3 Xrotation Yrotation Zrotation
								JOINT Head
								{
									OFFSET 0.000000 20.442200 4.834800
									CHANNELS 3 Xrotation Yrotation Zrotation
									JOINT HeadTop_End
									{
										OFFSET 0.000000 34.668396 4.968400
										CHANNELS 3 Xrotation Yrotation Zrotation
										End Site
										{
											OFFSET 0 0 0
										}
									}
								}
							}
						}
						JOINT LeftShoulder_virtual
						{
							OFFSET 0.000000 0.000000 0.000000
							CHANNELS 3 Xrotation Yrotation Zrotation
							JOINT LeftShoulder
							{
								OFFSET 3.288150 8.794197 -1.372250
								CHANNELS 3 Xrotation Yrotation Zrotation
								JOINT LeftShoulder_split
								{
									OFFSET 3.288150 8.794197 -1.372250
									CHANNELS 3 Xrotation Yrotation Zrotation
									JOINT LeftArm
									{
										OFFSET 11.953299 -2.279007 -0.146200
										CHANNELS 3 Xrotation Yrotation Zrotation
										JOINT LeftForeArm
										{
											OFFSET 18.448900 0.000000 0.000000
											CHANNELS 3 Xrotation Yrotation Zrotation
											JOINT LeftHand
											{
												OFFSET 29.527798 0.000000 0.000000
												CHANNELS 3 Xrotation Yrotation Zrotation
												End Site
												{
													OFFSET 0 0 0
												}
											}
										}
									}
								}
							}
						}
						JOINT RightShoulder_virtual
						{
							OFFSET 0.000000 0.000000 0.000000
							CHANNELS 3 Xrotation Yrotation Zrotation
							JOINT RightShoulder
							{
								OFFSET -3.249400 8.794197 -1.372250
								CHANNELS 3 Xrotation Yrotation Zrotation
								JOINT RightShoulder_split
								{
									OFFSET -3.249400 8.794197 -1.372250
									CHANNELS 3 Xrotation Yrotation Zrotation
									JOINT RightArm
									{
										OFFSET -11.953299 -2.279007 -0.146200
										CHANNELS 3 Xrotation Yrotation Zrotation
										JOINT RightForeArm
										{
											OFFSET -18.448900 0.000000 0.000000
											CHANNELS 3 Xrotation Yrotation Zrotation
											JOINT RightHand
											{
												OFFSET -29.527802 0.000000 0.000000
												CHANNELS 3 Xrotation Yrotation Zrotation
												End Site
												{
													OFFSET 0 0 0
												}
											}
										}
									}
								}
							}
						}
					}
				}
			}
		}
	}
}
MOTION
Frames: 8
Frame Time: 0.03333333
-6.555179 100.427856 -9.098709 0.000000 0.000000 0.000000 -10.970887 -1.680952 3.928791 -11.522882 7.018885 -0.503626 23.113338 3.367726 -0.675180 -5.422152 4.731124 2.921914 -1.965493 0.329454 -0.348113 0.000000 0.000000 0.000000 -9.934752 -3.016224 3.626385 -19.441333 -10.779288 -14.037119 36.055370 -0.257201 -1.684299 -5.643901 -15.897902 2.650523 -1.832081 0.367000 -0.819253 0.000000 0.000000 0.000000 -9.866117 -1.637464 4.068711 6.696077 1.444442 -2.655412 14.398117 2.749144 -1.644088 0.457004 -1.895954 0.352131 0.000000 0.000000 0.000000 14.057899 2.504690 -2.179107 29.879257 -1.752860 -5.893189 1.288197 -1.486602 -5.275374 0.000000 0.000000 0.000000 14.948750 3.081068 -2.963355 -3.082625 -22.979886 -26.323472 -1.790843 -0.723925 -4.089076 -0.401733 -43.160211 -29.097562 9.755266 -24.579271 0.225175 0.000000 0.000000 0.000000 14.471644 3.075523 -2.515407 0.242336 23.201874 23.384908 0.340080 0.907814 1.892651 -9.269873 20.492934 39.278663 36.015369 42.882957 -16.207551 0.000000 0.000000 0.000000 
-6.045989 100.754547 -8.979538 0.000000 0.000000 0.000000 -11.655897 -2.472713 4.480665 -8.470587 7.854992 -1.222568 19.956146 3.118208 -0.749496 -4.501463 4.385793 2.355332 -0.822505 0.463499 -0.645231 0.000000 0.000000 0.000000 -10.767605 -2.809799 4.182099 -17.698921 -11.693802 -15.239533 34.680207 -0.061010 -1.739170 -5.655414 -14.713686 3.018748 -1.602228 0.219104 -0.671972 0.000000 0.000000 0.000000 -11.333543 -1.338929 4.493814 6.642368 1.366854 -3.396261 13.006897 2.828677 -2.026986 0.876056 -2.024446 0.345098 0.000000 0.000000 0.000000 12.561347 2.603526 -2.368006 28.304895 -0.977618 -5.912296 0.736238 -0.101273 -5.529361 0.000000 0.000000 0.000000 13.528650 3.163158 -3.074690 -1.832372 -21.905919 -22.919192 -2.205410 -0.634733 -3.644716 -0.618142 -40.335470 -31.788308 8.565295 -23.682837 0.068907 0.000000 0.000000 0.000000 13.154418 3.142971 -2.676177 0.811606 21.634436 22.062877 0.568259 0.823194 2.248695 -4.460811 22.821359 40.277451 33.886488 45.316000 -15.358968 0.000000 0.000000 0.000000 
-5.666991 100.887955 -8.702480 0.000000 0.000000 0.000000 -11.711063 -3.087868 4.761439 -6.407880 8.424927 -1.752321 17.513954 2.965802 -0.731653 -3.714554 3.884221 1.933689 -0.148192 0.516241 -0.774490 0.000000 0.000000 0.000000 -11.018415 -2.549605 4.530213 -16.570305 -12.188805 -16.100416 33.796165 0.152740 -1.728291 -5.892485 -13.677444 3.551327 -1.957643 0.124860 -0.778304 0.000000 0.000000 0.000000 -11.928544 -0.890825 4.702687 6.438711 1.215949 -4.040942 11.609320 2.876048 -2.378033 1.074446 -2.132988 0.151510 0.000000 0.000000 0.000000 11.163514 2.653299 -2.565683 26.669918 -0.374394 -5.217853 -0.138647 0.919535 -5.427672 0.000000 0.000000 0.000000 12.122860 3.193225 -3.131044 -0.449271 -20.840082 -18.722103 -2.733618 -0.568584 -3.217314 -0.612784 -35.930101 -34.530117 8.961422 -24.338440 0.555413 0.000000 0.000000 0.000000 11.773592 3.138307 -2.831321 1.482883 19.895439 19.830906 0.678499 0.804126 2.462215 -0.493622 23.686563 41.813066 32.775957 47.055550 -15.444787 0.000000 0.000000 0.000000 
-5.447681 100.851021 -8.392868 0.000000 0.000000 0.000000 -11.433043 -3.478883 4.764200 -5.433753 8.850678 -2.015794 16.050390 2.930335 -0.677445 -2.950817 3.323198 1.814250 -0.017507 0.492526 -0.669974 0.000000 0.000000 0.000000 -10.844575 -2.459725 4.667102 -16.076262 -12.206270 -16.694733 33.322341 0.396382 -1.656691 -5.917100 -12.870250 4.255169 -2.821687 0.069375 -1.063319 0.000000 0.000000 0.000000 -11.883381 -0.616296 4.673172 6.040330 1.051497 -4.470852 10.261564 2.873308 -2.647087 1.460742 -2.267987 0.077738 0.000000 0.000000 0.000000 9.890512 2.634406 -2.738750 24.816166 0.062164 -4.087304 -1.409225 1.615066 -5.022327 0.000000 0.000000 0.000000 10.847002 3.127731 -3.168850 0.895461 -19.691610 -14.442828 -3.366106 -0.756721 -3.206582 0.178793 -30.248941 -37.180155 10.836687 -25.318237 1.448701 0.000000 0.000000 0.000000 10.420207 3.068298 -2.964686 2.134863 18.102003 17.088771 0.280665 1.028293 2.736062 1.878807 22.694936 43.988037 32.823430 47.641280 -16.372855 0.000000 0.000000 0.000000 
-5.324979 100.719025 -8.131729 0.000000 0.000000 0.000000 -11.098031 -3.777628 4.576907 -5.241329 9.138616 -2.137041 15.409108 3.087447 -0.599767 -2.442217 2.992687 2.124508 -0.012473 0.440574 -0.544939 0.000000 0.000000 0.000000 -10.473099 -2.711692 4.640818 -16.040418 -11.895688 -17.065033 33.085399 0.570380 -1.545925 -5.658446 -12.430950 4.824542 -3.615839 0.027914 -1.331085 0.000000 0.000000 0.000000 -11.426731 -0.777049 4.457188 5.515301 0.904674 -4.663829 8.992852 2.823380 -2.797138 1.655769 -2.074940 0.339236 0.000000 0.000000 0.000000 8.784533 2.551842 -2.850111 22.764274 0.372813 -2.935638 -2.884554 1.975729 -4.453449 0.000000 0.000000 0.000000 9.722036 2.989476 -3.199855 2.027318 -18.425409 -10.854311 -4.216000 -1.010795 -3.298982 1.015975 -23.898499 -39.960811 13.911890 -25.010116 2.430057 0.000000 0.000000 0.000000 9.175335 2.961103 -3.037946 2.667619 16.433565 14.440494 -0.383116 1.440077 3.134115 2.490323 19.924514 46.755339 33.758753 46.926931 -17.646253 0.000000 0.000000 0.000000 
-5.234354 100.583176 -7.909134 0.000000 0.000000 0.000000 -10.826690 -3.893773 4.320699 -5.468842 9.289716 -2.252771 15.167794 3.407338 -0.478668 -2.354327 2.951204 2.706448 0.267902 0.421921 -0.584904 0.000000 0.000000 0.000000 -10.096073 -3.226459 4.519575 -16.172662 -11.433204 -17.226902 32.793166 0.586432 -1.391292 -5.435499 -12.389266 4.933850 -3.850979 -0.004049 -1.439863 0.000000 0.000000 0.000000 -10.906684 -1.334807 4.191503 4.871109 0.779023 -4.654068 7.837477 2.736650 -2.821634 1.855356 -1.956504 0.615640 0.000000 0.000000 0.000000 7.812834 2.425881 -2.855230 20.585393 0.556510 -2.138831 -4.175798 2.101581 -3.892615 0.000000 0.000000 0.000000 8.759993 2.807318 -3.170490 2.877391 -17.108545 -8.218648 -5.124003 -1.280666 -3.477003 0.679037 -17.207506 -43.133492 17.318197 -22.965384 2.997964 0.000000 0.000000 0.000000 8.102139 2.823026 -3.017383 3.041728 15.060045 12.341512 -1.242405 1.730945 3.797817 1.676096 15.815790 49.928294 35.157641 45.125615 -18.705701 0.000000 0.000000 0.000000 
-5.160605 100.525635 -7.736744 0.000000 0.000000 0.000000 -10.673889 -3.967649 4.103178 -5.515408 9.329670 -2.394803 14.901516 3.682594 -0.314692 -2.622218 3.020279 3.146459 0.525811 0.453436 -0.726837 0.000000 0.000000 0.000000 -9.867620 -3.762119 4.405715 -16.157900 -11.044587 -17.234118 32.351847 0.445361 -1.222762 -5.385708 -12.634394 4.559919 -3.600868 -0.002755 -1.367857 0.000000 0.000000 0.000000 -10.504537 -2.120621 3.964698 4.226355 0.670551 -4.545062 6.844471 2.615493 -2.763039 2.136550 -1.770833 0.931664 0.000000 0.000000 0.000000 6.956273 2.289801 -2.752004 18.401631 0.655086 -1.870527 -4.974508 2.109531 -3.484712 0.000000 0.000000 0.000000 7.896095 2.617647 -3.066270 3.409890 -15.737067 -6.673593 -6.028832 -1.601682 -3.264924 -0.932449 -10.205613 -46.262630 20.586817 -19.971316 2.903330 0.000000 0.000000 0.000000 7.238445 2.666407 -2.913580 3.294398 14.028192 11.065737 -1.887540 2.140109 4.034621 0.139565 11.174743 53.006738 36.676757 42.733232 -19.166880 0.000000 0.000000 0.000000 
-5.069761 100.538589 -7.516911 0.000000 0.000000 0.000000 -10.659122 -4.123118 3.990503 -5.151028 9.268697 -2.538787 14.544406 3.791140 -0.114843 -2.967077 3.035248 3.274956 0.473645 0.519403 -0.932296 0.000000 0.000000 0.000000 -9.839494 -4.210779 4.330223 -15.900279 -10.811224 -17.157015 31.853219 0.234143 -1.062354 -5.391716 -13.046243 4.024566 -3.327577 0.027113 -1.172471 0.000000 0.000000 0.000000 -10.321515 -2.856921 3.851163 3.662184 0.561481 -4.427903 6.033767 2.488349 -2.680866 2.004048 -1.194039 1.028684 0.000000 0.000000 0.000000 6.228862 2.167973 -2.574214 16.326500 0.647749 -2.112269 -5.048335 1.925794 -3.261138 0.000000 0.000000 0.000000 7.116632 2.468200 -2.895945 3.702620 -14.411419 -5.978862 -6.517531 -2.246356 -2.709143 -3.653616 -3.227232 -48.929139 23.385825 -17.100929 2.213169 0.000000 0.000000 0.000000 6.579496 2.508384 -2.762025 3.425653 13.303827 10.573059 -2.322996 2.449147 3.650748 -1.435865 6.564110 55.593406 37.968564 40.127334 -18.856032 0.000000 0.000000 0.000000 
